<svg width="1440" height="218" viewBox="0 0 1440 218" fill="none" xmlns="http://www.w3.org/2000/svg">
<path d="M405.559 52.2215L502.097 32.4145L524.862 2.86365L507.525 -80.1415L561.846 -101.079L591.396 -172.49L675.151 -98.1595L705.503 -137.561L771.669 -105.229L814.101 -29.3775L879.664 -66.1794L1057.89 36.7849L968.257 153.141L995.733 198.832L930.285 283.79L872.277 301.887L843.736 424.106L791.473 430.932L714.653 371.754L650.712 369.585L606.49 288.43L539.502 236.827L481.895 270.928L379.264 191.866L405.559 52.2215Z" stroke="#6C6C6C" stroke-opacity="0.25" stroke-width="3"/>
<path d="M683.496 122.731L686.272 107.838L697.132 93.7399L715.034 91.8582L729.894 99.2307L736.889 95.32L755.953 106.349L746.406 118.742L736.189 134.589L733.17 147.623L727.588 148.338L719.368 142.006L700.625 127.567L694.479 131.191L683.496 122.731Z" stroke="#6C6C6C" stroke-opacity="0.25" stroke-width="3"/>
<path d="M426.836 56.9106L516.054 38.0544L537.903 9.69223L522.589 -67.0003L573.42 -86.3995L601.268 -152.034L679.152 -83.1376L707.708 -119.809L769.516 -89.5398L809.418 -19.0989L869.57 -52.5932L1033.72 42.9274L950.589 150.943L975.558 193.728L914.912 273.154L861.152 289.886L834.592 402.731L786.032 408.789L714.805 353.919L654.342 350.806L613.284 276.034L551.214 228.539L497.616 259.692L402.456 186.386L426.836 56.9106Z" stroke="#6C6C6C" stroke-opacity="0.25" stroke-width="3"/>
<path d="M448.113 61.6001L530.012 43.6947L550.945 16.5212L537.653 -53.8587L584.994 -71.7197L611.141 -131.577L683.153 -68.1152L709.912 -102.056L767.365 -73.8503L804.736 -8.81991L859.477 -39.0066L1009.55 49.0703L932.921 148.745L955.383 188.625L899.54 262.518L850.027 277.886L825.448 381.357L780.592 386.646L714.958 336.085L657.972 332.028L620.079 263.638L562.925 220.252L513.336 248.456L425.649 180.906L448.113 61.6001Z" stroke="#6C6C6C" stroke-opacity="0.25" stroke-width="3"/>
<path d="M469.389 66.2893L543.969 49.3347L563.986 23.35L552.717 -40.7173L596.567 -57.0401L621.013 -111.121L687.154 -53.0931L712.116 -84.3041L765.212 -58.161L800.052 1.45884L849.384 -25.4203L985.381 55.213L915.252 146.546L935.208 183.521L884.167 251.882L838.902 265.885L816.303 359.982L775.152 364.503L715.111 318.25L661.601 313.249L626.874 251.241L574.636 211.964L529.056 237.22L448.841 175.426L469.389 66.2893Z" stroke="#6C6C6C" stroke-opacity="0.25" stroke-width="3"/>
<path d="M490.666 70.9784L557.926 54.9746L577.028 30.1785L567.78 -27.5761L608.141 -42.3607L630.885 -90.6647L691.155 -38.0711L714.321 -66.5521L763.06 -42.4718L795.369 11.7375L839.29 -11.8341L961.211 61.3554L897.584 144.348L915.033 178.418L868.794 241.246L827.776 253.884L807.159 338.608L769.712 342.359L715.264 300.415L665.23 294.471L633.669 238.845L586.348 203.677L544.776 225.984L472.034 169.946L490.666 70.9784Z" stroke="#6C6C6C" stroke-opacity="0.25" stroke-width="3"/>
<path d="M511.942 75.6679L571.884 60.6149L590.07 37.0075L582.844 -14.4345L619.715 -27.6809L640.757 -70.2082L695.156 -23.0488L716.525 -48.7997L760.908 -26.7823L790.687 22.0165L829.197 1.75247L937.04 67.4984L879.915 142.15L894.859 173.315L853.422 230.61L816.651 241.884L798.014 317.233L764.271 320.216L715.417 282.581L668.86 275.693L640.464 226.448L598.059 195.389L560.497 214.748L495.227 164.467L511.942 75.6679Z" stroke="#6C6C6C" stroke-opacity="0.25" stroke-width="3"/>
<path d="M533.219 80.357L585.841 66.2548L603.111 43.8361L597.908 -1.29323L631.288 -13.0014L650.629 -49.7521L699.157 -8.02679L718.729 -31.0477L758.756 -11.0932L786.004 32.2951L819.103 15.3387L912.87 73.6409L862.247 139.951L874.684 168.211L838.049 219.973L805.526 229.883L788.87 295.858L758.831 298.073L715.569 264.746L672.489 256.914L647.259 214.052L609.77 187.102L576.217 203.512L518.419 158.987L533.219 80.357Z" stroke="#6C6C6C" stroke-opacity="0.25" stroke-width="3"/>
<path d="M554.495 85.0462L599.798 71.8948L616.153 50.6648L612.971 11.8481L642.862 1.67809L660.501 -29.2958L703.158 6.99532L720.933 -13.2956L756.604 4.59612L781.321 42.5739L809.01 28.925L888.699 79.7835L844.578 137.753L854.509 163.108L822.676 209.337L794.401 217.882L779.725 274.484L753.391 275.929L715.722 246.911L676.119 238.135L654.053 201.655L621.482 178.814L591.937 192.275L541.612 153.507L554.495 85.0462Z" stroke="#6C6C6C" stroke-opacity="0.25" stroke-width="3"/>
<path d="M575.772 89.7354L613.755 77.5349L629.194 57.4936L628.035 24.9895L654.436 16.3577L670.373 -8.83958L707.159 22.0174L723.138 4.45656L754.452 20.2854L776.638 52.8526L798.917 42.5113L864.529 85.9261L826.91 135.555L834.334 158.004L807.303 198.701L783.275 205.881L770.581 253.109L747.95 253.786L715.874 229.076L679.748 219.357L660.848 189.259L633.193 170.526L607.657 181.039L564.804 148.027L575.772 89.7354Z" stroke="#6C6C6C" stroke-opacity="0.25" stroke-width="3"/>
<path d="M597.048 94.4249L627.713 83.1751L642.236 64.3225L643.099 38.1311L666.01 31.0375L680.246 11.6169L711.16 37.0398L725.342 22.2089L752.3 35.9749L771.955 63.1316L788.823 56.0979L840.358 92.0691L809.242 133.357L814.159 152.901L791.931 188.065L772.15 193.881L761.437 231.735L742.51 231.643L716.027 211.242L683.378 200.579L667.643 176.863L644.904 162.239L623.378 169.803L587.997 142.548L597.048 94.4249Z" stroke="#6C6C6C" stroke-opacity="0.25" stroke-width="3"/>
<path d="M618.325 99.114L641.67 88.815L655.278 71.1511L658.162 51.2724L677.583 45.7169L690.118 32.0731L715.161 52.0618L727.546 39.961L750.148 51.6641L767.272 73.4103L778.73 69.6841L816.188 98.2116L791.573 131.158L793.984 147.797L776.558 177.429L761.025 181.88L752.292 210.36L737.07 209.499L716.18 193.407L687.007 181.8L674.438 164.466L656.616 153.951L639.098 158.567L611.189 137.068L618.325 99.114Z" stroke="#6C6C6C" stroke-opacity="0.25" stroke-width="3"/>
<path d="M639.601 103.803L655.627 94.4551L668.319 77.9799L673.226 64.4137L689.157 60.3965L699.99 52.5293L719.162 67.0839L729.751 57.7131L747.995 67.3534L762.589 83.689L768.637 83.2704L792.017 104.354L773.905 128.96L773.809 142.694L761.186 166.792L749.9 169.879L743.148 188.985L731.629 187.356L716.333 175.572L690.636 163.021L681.233 152.069L668.327 145.664L654.818 147.331L634.382 131.588L639.601 103.803Z" stroke="#6C6C6C" stroke-opacity="0.25" stroke-width="3"/>
<path d="M660.878 108.493L669.585 100.095L681.361 84.8087L688.29 77.5552L700.731 75.0761L709.862 72.9857L723.164 82.1061L731.955 75.4654L745.844 83.0428L757.906 93.9679L758.543 96.8568L767.847 110.497L756.236 126.762L753.634 137.59L745.813 156.156L738.775 157.879L734.004 167.611L726.189 165.213L716.486 157.738L694.266 144.243L688.028 139.673L680.039 137.376L670.538 136.095L657.575 126.108L660.878 108.493Z" stroke="#6C6C6C" stroke-opacity="0.25" stroke-width="3"/>
<path d="M1132.3 52.2215L1228.84 32.4145L1251.61 2.86365L1234.27 -80.1415L1288.59 -101.079L1318.14 -172.49L1401.9 -98.1595L1432.25 -137.561L1498.41 -105.229L1540.85 -29.3775L1606.41 -66.1794L1784.64 36.7849L1695 153.141L1722.48 198.832L1657.03 283.79L1599.02 301.887L1570.48 424.106L1518.22 430.932L1441.4 371.754L1377.46 369.585L1333.23 288.43L1266.25 236.827L1208.64 270.928L1106.01 191.866L1132.3 52.2215Z" stroke="#6C6C6C" stroke-opacity="0.25" stroke-width="3"/>
<path d="M1410.24 122.731L1413.02 107.838L1423.88 93.7399L1441.78 91.8582L1456.64 99.2307L1463.63 95.32L1482.7 106.349L1473.15 118.742L1462.93 134.589L1459.91 147.623L1454.33 148.338L1446.11 142.006L1427.37 127.567L1421.22 131.191L1410.24 122.731Z" stroke="#6C6C6C" stroke-opacity="0.25" stroke-width="3"/>
<path d="M1153.58 56.9106L1242.8 38.0544L1264.65 9.69223L1249.33 -67.0003L1300.16 -86.3995L1328.01 -152.034L1405.9 -83.1376L1434.45 -119.809L1496.26 -89.5398L1536.16 -19.0989L1596.32 -52.5932L1760.47 42.9274L1677.33 150.943L1702.3 193.728L1641.66 273.154L1587.9 289.886L1561.34 402.731L1512.78 408.789L1441.55 353.919L1381.09 350.806L1340.03 276.034L1277.96 228.539L1224.36 259.692L1129.2 186.386L1153.58 56.9106Z" stroke="#6C6C6C" stroke-opacity="0.25" stroke-width="3"/>
<path d="M1174.86 61.6001L1256.76 43.6947L1277.69 16.5212L1264.4 -53.8587L1311.74 -71.7197L1337.89 -131.577L1409.9 -68.1152L1436.66 -102.056L1494.11 -73.8503L1531.48 -8.81991L1586.22 -39.0066L1736.3 49.0703L1659.67 148.745L1682.13 188.625L1626.28 262.518L1576.77 277.886L1552.19 381.357L1507.34 386.646L1441.7 336.085L1384.72 332.028L1346.82 263.638L1289.67 220.252L1240.08 248.456L1152.39 180.906L1174.86 61.6001Z" stroke="#6C6C6C" stroke-opacity="0.25" stroke-width="3"/>
<path d="M1196.13 66.2893L1270.71 49.3347L1290.73 23.35L1279.46 -40.7173L1323.31 -57.0401L1347.76 -111.121L1413.9 -53.0931L1438.86 -84.3041L1491.96 -58.161L1526.8 1.45884L1576.13 -25.4203L1712.13 55.213L1642 146.546L1661.95 183.521L1610.91 251.882L1565.65 265.885L1543.05 359.982L1501.9 364.503L1441.86 318.25L1388.35 313.249L1353.62 251.241L1301.38 211.964L1255.8 237.22L1175.59 175.426L1196.13 66.2893Z" stroke="#6C6C6C" stroke-opacity="0.25" stroke-width="3"/>
<path d="M1217.41 70.9784L1284.67 54.9746L1303.77 30.1785L1294.53 -27.5761L1334.89 -42.3607L1357.63 -90.6647L1417.9 -38.0711L1441.07 -66.5521L1489.81 -42.4718L1522.11 11.7375L1566.04 -11.8341L1687.96 61.3554L1624.33 144.348L1641.78 178.418L1595.54 241.246L1554.52 253.884L1533.9 338.608L1496.46 342.359L1442.01 300.415L1391.98 294.471L1360.41 238.845L1313.09 203.677L1271.52 225.984L1198.78 169.946L1217.41 70.9784Z" stroke="#6C6C6C" stroke-opacity="0.25" stroke-width="3"/>
<path d="M1238.69 75.6679L1298.63 60.6149L1316.82 37.0075L1309.59 -14.4345L1346.46 -27.6809L1367.5 -70.2082L1421.9 -23.0488L1443.27 -48.7997L1487.65 -26.7823L1517.43 22.0165L1555.94 1.75247L1663.79 67.4984L1606.66 142.15L1621.6 173.315L1580.17 230.61L1543.4 241.884L1524.76 317.233L1491.02 320.216L1442.16 282.581L1395.61 275.693L1367.21 226.448L1324.8 195.389L1287.24 214.748L1221.97 164.467L1238.69 75.6679Z" stroke="#6C6C6C" stroke-opacity="0.25" stroke-width="3"/>
<path d="M1259.96 80.357L1312.59 66.2548L1329.86 43.8361L1324.65 -1.29323L1358.03 -13.0014L1377.37 -49.7521L1425.9 -8.02679L1445.47 -31.0477L1485.5 -11.0932L1512.75 32.2951L1545.85 15.3387L1639.62 73.6409L1588.99 139.951L1601.43 168.211L1564.79 219.973L1532.27 229.883L1515.62 295.858L1485.58 298.073L1442.31 264.746L1399.23 256.914L1374 214.052L1336.52 187.102L1302.96 203.512L1245.16 158.987L1259.96 80.357Z" stroke="#6C6C6C" stroke-opacity="0.25" stroke-width="3"/>
<path d="M1281.24 85.0462L1326.54 71.8948L1342.9 50.6648L1339.72 11.8481L1369.61 1.67809L1387.25 -29.2958L1429.9 6.99532L1447.68 -13.2956L1483.35 4.59612L1508.07 42.5739L1535.76 28.925L1615.44 79.7835L1571.32 137.753L1581.25 163.108L1549.42 209.337L1521.15 217.882L1506.47 274.484L1480.14 275.929L1442.47 246.911L1402.86 238.135L1380.8 201.655L1348.23 178.814L1318.68 192.275L1268.36 153.507L1281.24 85.0462Z" stroke="#6C6C6C" stroke-opacity="0.25" stroke-width="3"/>
<path d="M1302.52 89.7354L1340.5 77.5349L1355.94 57.4936L1354.78 24.9895L1381.18 16.3577L1397.12 -8.83958L1433.9 22.0174L1449.88 4.45656L1481.2 20.2854L1503.38 52.8526L1525.66 42.5113L1591.27 85.9261L1553.66 135.555L1561.08 158.004L1534.05 198.701L1510.02 205.881L1497.33 253.109L1474.7 253.786L1442.62 229.076L1406.49 219.357L1387.59 189.259L1359.94 170.526L1334.4 181.039L1291.55 148.027L1302.52 89.7354Z" stroke="#6C6C6C" stroke-opacity="0.25" stroke-width="3"/>
<path d="M1323.79 94.4249L1354.46 83.1751L1368.98 64.3225L1369.84 38.1311L1392.75 31.0375L1406.99 11.6169L1437.91 37.0398L1452.09 22.2089L1479.04 35.9749L1498.7 63.1316L1515.57 56.0979L1567.1 92.0691L1535.99 133.357L1540.9 152.901L1518.68 188.065L1498.9 193.881L1488.18 231.735L1469.26 231.643L1442.77 211.242L1410.12 200.579L1394.39 176.863L1371.65 162.239L1350.12 169.803L1314.74 142.548L1323.79 94.4249Z" stroke="#6C6C6C" stroke-opacity="0.25" stroke-width="3"/>
<path d="M1345.07 99.114L1368.42 88.815L1382.02 71.1511L1384.91 51.2724L1404.33 45.7169L1416.86 32.0731L1441.91 52.0618L1454.29 39.961L1476.89 51.6641L1494.02 73.4103L1505.47 69.6841L1542.93 98.2116L1518.32 131.158L1520.73 147.797L1503.3 177.429L1487.77 181.88L1479.04 210.36L1463.81 209.499L1442.93 193.407L1413.75 181.8L1401.18 164.466L1383.36 153.951L1365.84 158.567L1337.93 137.068L1345.07 99.114Z" stroke="#6C6C6C" stroke-opacity="0.25" stroke-width="3"/>
<path d="M1366.35 103.803L1382.37 94.4551L1395.06 77.9799L1399.97 64.4137L1415.9 60.3965L1426.74 52.5293L1445.91 67.0839L1456.5 57.7131L1474.74 67.3534L1489.33 83.689L1495.38 83.2704L1518.76 104.354L1500.65 128.96L1500.55 142.694L1487.93 166.792L1476.64 169.879L1469.89 188.985L1458.37 187.356L1443.08 175.572L1417.38 163.021L1407.98 152.069L1395.07 145.664L1381.56 147.331L1361.13 131.588L1366.35 103.803Z" stroke="#6C6C6C" stroke-opacity="0.25" stroke-width="3"/>
<path d="M1387.62 108.493L1396.33 100.095L1408.11 84.8087L1415.04 77.5552L1427.48 75.0761L1436.61 72.9857L1449.91 82.1061L1458.7 75.4654L1472.59 83.0428L1484.65 93.9679L1485.29 96.8568L1494.59 110.497L1482.98 126.762L1480.38 137.59L1472.56 156.156L1465.52 157.879L1460.75 167.611L1452.93 165.213L1443.23 157.738L1421.01 144.243L1414.77 139.673L1406.78 137.376L1397.28 136.095L1384.32 126.108L1387.62 108.493Z" stroke="#6C6C6C" stroke-opacity="0.25" stroke-width="3"/>
<path d="M-336.696 38.059L-240.158 18.252L-217.393 -11.2988L-234.73 -94.304L-180.409 -115.241L-150.859 -186.652L-67.1042 -112.322L-36.7515 -151.723L29.4137 -119.391L71.8462 -43.54L137.409 -80.3419L315.638 22.6224L226.003 138.979L253.478 184.669L188.03 269.628L130.022 287.725L101.481 409.944L49.2179 416.77L-27.6023 357.591L-91.5425 355.423L-135.765 274.268L-202.753 222.664L-260.359 256.766L-362.991 177.703L-336.696 38.059Z" stroke="#6C6C6C" stroke-opacity="0.25" stroke-width="3"/>
<path d="M-58.7585 108.568L-55.9834 93.6753L-45.1231 79.5774L-27.221 77.6957L-12.3611 85.0682L-5.36638 81.1575L13.6978 92.1866L4.15082 104.58L-6.06609 120.427L-9.08524 133.46L-14.6666 134.176L-22.8872 127.843L-41.6302 113.404L-47.7757 117.029L-58.7585 108.568Z" stroke="#6C6C6C" stroke-opacity="0.25" stroke-width="3"/>
<path d="M-315.419 42.7481L-226.201 23.8919L-204.352 -4.47025L-219.666 -81.1628L-168.835 -100.562L-140.986 -166.196L-63.1032 -97.3001L-34.5473 -133.971L27.2615 -103.702L67.1632 -33.2614L127.315 -66.7557L291.467 28.7649L208.334 136.78L233.303 179.566L172.657 258.992L118.897 275.724L92.3369 388.569L43.7775 394.627L-27.4497 339.757L-87.9132 336.644L-128.971 261.871L-191.041 214.377L-244.639 245.53L-339.799 172.223L-315.419 42.7481Z" stroke="#6C6C6C" stroke-opacity="0.25" stroke-width="3"/>
<path d="M-294.142 47.4376L-212.243 29.5322L-191.31 2.35874L-204.602 -68.0211L-157.261 -85.8821L-131.114 -145.74L-59.1019 -82.2777L-32.3428 -116.219L25.1097 -88.0127L62.4806 -22.9824L117.222 -53.1691L267.297 34.9078L190.666 134.582L213.128 174.462L157.285 248.356L107.772 263.723L83.1928 367.195L38.3375 372.483L-27.2966 321.922L-84.2834 317.866L-122.175 249.475L-179.33 206.089L-228.919 234.294L-316.606 166.744L-294.142 47.4376Z" stroke="#6C6C6C" stroke-opacity="0.25" stroke-width="3"/>
<path d="M-272.866 52.1268L-198.286 35.1722L-178.268 9.18747L-189.538 -54.8798L-145.688 -71.2026L-121.242 -125.283L-55.1009 -67.2556L-30.1385 -98.4666L22.9575 -72.3235L57.7976 -12.7036L107.129 -39.5828L243.126 41.0505L172.997 132.384L192.953 169.359L141.912 237.719L96.6466 251.723L74.0483 345.82L32.8971 350.34L-27.144 304.087L-80.654 299.087L-115.381 237.079L-167.618 197.802L-213.199 223.058L-293.413 161.264L-272.866 52.1268Z" stroke="#6C6C6C" stroke-opacity="0.25" stroke-width="3"/>
<path d="M-251.589 56.8159L-184.329 40.8121L-165.227 16.0161L-174.475 -41.7386L-134.114 -56.5232L-111.37 -104.827L-51.0999 -52.2336L-27.9343 -80.7146L20.8053 -56.6343L53.1146 -2.42501L97.0353 -25.9966L218.956 47.193L155.329 130.185L172.778 164.255L126.539 227.083L85.5214 239.722L64.9038 324.445L27.4567 328.197L-26.9913 286.253L-77.0247 280.308L-108.586 224.682L-155.907 189.514L-197.479 211.821L-270.221 155.784L-251.589 56.8159Z" stroke="#6C6C6C" stroke-opacity="0.25" stroke-width="3"/>
<path d="M-230.312 61.5054L-170.371 46.4524L-152.185 22.845L-159.411 -28.5969L-122.54 -41.8433L-101.497 -84.3707L-47.0986 -37.2112L-25.7298 -62.9622L18.6535 -40.9448L48.432 7.85399L86.9422 -12.41L194.786 53.3359L137.661 127.987L152.604 159.152L111.167 216.447L74.3964 227.721L55.7597 303.071L22.0166 306.054L-26.8383 268.418L-73.3949 261.53L-101.791 212.286L-144.196 181.227L-181.758 200.585L-247.028 150.304L-230.312 61.5054Z" stroke="#6C6C6C" stroke-opacity="0.25" stroke-width="3"/>
<path d="M-209.036 66.1945L-156.414 52.0923L-139.144 29.6736L-144.347 -15.4557L-110.966 -27.1639L-91.6254 -63.9145L-43.0977 -22.1893L-23.5256 -45.2102L16.5012 -25.2556L43.7489 18.1326L76.8487 1.17618L170.615 59.4784L119.992 125.789L132.429 154.049L95.7942 205.811L63.2712 215.72L46.6151 281.696L16.5762 283.91L-26.6857 250.583L-69.7656 242.751L-94.9961 199.889L-132.484 172.939L-166.038 189.349L-223.836 144.824L-209.036 66.1945Z" stroke="#6C6C6C" stroke-opacity="0.25" stroke-width="3"/>
<path d="M-187.76 70.8837L-142.457 57.7323L-126.102 36.5024L-129.284 -2.31436L-99.3928 -12.4844L-81.7534 -43.4583L-39.0968 -7.16716L-21.3215 -27.458L14.349 -9.56636L39.0658 28.4114L66.7551 14.7625L146.444 65.621L102.324 123.591L112.254 148.945L80.4214 195.175L52.1458 203.72L37.4705 260.321L11.1357 261.767L-26.5331 232.749L-66.1363 223.973L-88.2014 187.493L-120.773 164.652L-150.318 178.113L-200.643 139.345L-187.76 70.8837Z" stroke="#6C6C6C" stroke-opacity="0.25" stroke-width="3"/>
<path d="M-166.483 75.573L-128.499 63.3724L-113.061 43.3311L-114.22 10.827L-87.8192 2.19518L-71.8814 -23.0021L-35.0959 7.85493L-19.1173 -9.70591L12.1967 6.12293L34.3828 38.6901L56.6616 28.3488L122.274 71.7637L84.655 121.392L92.0788 143.842L65.0486 184.538L41.0205 191.719L28.326 238.947L5.69523 239.623L-26.3805 214.914L-62.507 205.194L-81.4067 175.096L-109.062 156.364L-134.598 166.877L-177.451 133.865L-166.483 75.573Z" stroke="#6C6C6C" stroke-opacity="0.25" stroke-width="3"/>
<path d="M-145.206 80.2624L-114.542 69.0127L-100.019 50.1601L-99.1561 23.9686L-76.2452 16.875L-62.0089 -2.54554L-31.0945 22.8773L-16.9128 8.04647L10.0449 21.8125L29.7002 48.9691L46.5685 41.9354L98.1035 77.9066L66.9868 119.194L71.9042 138.738L49.6762 173.903L29.8956 179.718L19.1819 217.572L0.255186 217.48L-26.2274 197.079L-58.8773 186.416L-74.6116 162.7L-97.3503 148.077L-118.877 155.641L-154.258 128.385L-145.206 80.2624Z" stroke="#6C6C6C" stroke-opacity="0.25" stroke-width="3"/>
<path d="M-123.93 84.9515L-100.585 74.6526L-86.9773 56.9887L-84.0925 37.1099L-64.6716 31.5544L-52.1369 17.9106L-27.0936 37.8993L-14.7086 25.7985L7.89267 37.5016L25.0171 59.2478L36.4751 55.5216L73.9329 84.0491L49.3183 116.996L51.7292 133.635L34.3034 163.266L18.7703 167.718L10.0373 196.197L-5.18527 195.337L-26.0748 179.245L-55.2479 167.637L-67.8169 150.303L-85.6391 139.789L-103.157 144.405L-131.066 122.905L-123.93 84.9515Z" stroke="#6C6C6C" stroke-opacity="0.25" stroke-width="3"/>
<path d="M-102.654 89.6408L-86.6275 80.2926L-73.9358 63.8174L-69.0289 50.2512L-53.098 46.234L-42.2649 38.3668L-23.0927 52.9214L-12.5044 43.5506L5.74043 53.1909L20.3341 69.5265L26.3816 69.1079L49.7623 90.1917L31.6497 114.797L31.5542 128.531L18.9306 152.63L7.64497 155.717L0.892779 174.823L-10.6257 173.194L-25.9222 161.41L-51.6186 148.859L-61.0221 137.907L-73.9279 131.501L-87.437 133.168L-107.873 117.425L-102.654 89.6408Z" stroke="#6C6C6C" stroke-opacity="0.25" stroke-width="3"/>
<path d="M-81.3766 94.3301L-72.6698 85.9328L-60.8938 70.6462L-53.9649 63.3927L-41.5239 60.9137L-32.3924 58.8232L-19.0913 67.9436L-10.2998 61.3029L3.58868 68.8803L15.6515 79.8054L16.2885 82.6943L25.5922 96.3345L13.9817 112.599L11.3797 123.428L3.5583 141.994L-3.47985 143.716L-8.25129 153.448L-16.0657 151.05L-25.7691 143.575L-47.9888 130.08L-54.2269 125.511L-62.2162 123.214L-71.7165 121.932L-84.6802 111.946L-81.3766 94.3301Z" stroke="#6C6C6C" stroke-opacity="0.25" stroke-width="3"/>
</svg>
